<?xml version="1.0" standalone="no"?>
<!DOCTYPE svg PUBLIC "-//W3C//DTD SVG 20010904//EN"
 "http://www.w3.org/TR/2001/REC-SVG-20010904/DTD/svg10.dtd">
<svg version="1.0" xmlns="http://www.w3.org/2000/svg"
 width="128.000000pt" height="128.000000pt" viewBox="0 0 128.000000 128.000000"
 preserveAspectRatio="xMidYMid meet">
<metadata>
Created by potrace 1.14, written by Peter Selinger 2001-2017
</metadata>
<g transform="translate(0.000000,128.000000) scale(0.100000,-0.100000)"
fill="#000000" stroke="none">
<path d="M524 1266 c-181 -35 -352 -157 -442 -317 -12 -23 -35 -75 -49 -117
-23 -66 -27 -93 -26 -192 0 -97 4 -128 26 -196 64 -194 217 -347 411 -411 69
-22 99 -26 196 -26 97 0 127 4 196 26 194 64 347 217 411 411 33 103 38 267
10 359 -70 229 -237 396 -455 452 -83 22 -197 26 -278 11z m235 -252 c255 -81
355 -395 193 -609 -106 -141 -316 -195 -473 -123 -194 89 -284 324 -201 519
20 47 77 119 93 119 23 0 17 -31 -16 -79 -112 -167 -71 -385 93 -490 216 -138
487 -16 535 240 20 108 -35 249 -123 319 -45 35 -109 65 -162 74 l-37 7 -3
-73 c-2 -57 -6 -73 -18 -73 -12 0 -16 18 -18 89 -2 62 1 92 9 97 15 9 70 2
128 -17z m-233 -225 c174 -111 184 -119 184 -153 0 -27 -38 -66 -65 -66 -35 0
-43 9 -154 184 -17 28 -31 54 -31 58 0 14 15 9 66 -23z"/>
</g>
</svg>
